<svg id="Capa_1" data-name="Capa 1" xmlns="http://www.w3.org/2000/svg" viewBox="0 0 169.36 37.55"><defs><style>.cls-1{fill:#53565a;}</style></defs><path id="Trazado_596" data-name="Trazado 596" class="cls-1" d="M133.8,2.22l-3.12,2.72h-2.79l1.46-2.72ZM129.65,9c-2.57,0-3.46,1-3.46,5.3s.92,5.35,3.48,5.35,3.44-1.1,3.44-5.35S132.23,9,129.65,9m0,14.05c-5.19,0-7.43-2.74-7.43-8.74s2.18-8.7,7.43-8.7,7.42,2.7,7.42,8.7-2.13,8.74-7.42,8.74m28.1-.32-6.37-9L150.22,12l-.05,0,0,2.09v8.67H146.6V6H150l6.18,8.64,1.19,1.71,0,0,0-2.07V6H161V22.74ZM108.36,6h4.17V22.74h-4.17Zm-14.18,8,5.18,8.8H94.73l-2.41-4.42-.93-1.87h-.08l-1,1.89L88,22.74H83.27l5.09-8.69L83.4,6h4.89l2.09,3.8,1,1.84h.08l1-1.84L94.49,6h4.69ZM66.71,11.18l-1.6,5.09h4.37L67.93,11.2l-.55-2H67.3Zm3.78,8.35H64.1l-1,3.21H58.77L65,6h4.76l6.31,16.79H71.47ZM44,9.24H41.44v4.45h2.48c1.76,0,2.41-.52,2.41-2.28S45.73,9.24,44,9.24m3.7,6.62,4.09,6.88H47l-3-6.08H41.44v6.08h-4V6H44c4.39,0,6.59,1.71,6.59,5.28a4.41,4.41,0,0,1-2.89,4.63M24.09,9.5V22.74H20V9.5H15.2L15.28,6H28.74l.07,3.55ZM151.25,39.62l-4-5.84-.5-.77h0v6.59h-1V31.14h1l4.3,6.41h0l0-.91V31.14h1v8.48Zm8.52-7.4v7.4H158.6v-7.4h-2.53l0-1.08h6.16l0,1.08Zm-18.38,6.35,0,1h-5.41V31.14h5.22l0,1.06H137.1v2.52h3.5v1h-3.5v2.87Zm-11.67-7.43h1.19v8.47h-1.19Zm-11.88,0,2.43,6,.33.85h0l.32-.85,2.43-6h1.3v8.48h-1.05V34l0-.92h0l-.33.86L121,39.62h-.81L117.9,34l-.33-.85h0v6.47h-1V31.14Zm-7.54,0h1.19v8.47H110.3Zm58.87.94c-1.66,0-2.3.7-2.3,3.3s.64,3.31,2.3,3.31,2.3-.73,2.3-3.31-.62-3.3-2.3-3.3m0,7.7c-2.51,0-3.52-1.3-3.52-4.4s1-4.38,3.52-4.38,3.51,1.27,3.51,4.38-1,4.39-3.5,4.39m-63.06-8.63-3,8.48h-1.32l-3-8.48h1.29l2.14,6.5.27.87h0l.27-.87,2.14-6.5Zm-14.27.94c-1.66,0-2.3.7-2.3,3.3s.64,3.31,2.3,3.31,2.3-.73,2.3-3.31-.63-3.3-2.3-3.3m0,7.7c-2.51,0-3.52-1.3-3.52-4.4s1-4.38,3.52-4.38,3.51,1.27,3.51,4.38-1,4.39-3.5,4.39M77.21,31.15l2.43,6L80,38h0l.32-.85,2.43-6h1.3v8.48H83V34l0-.92h0l-.33.86-2.3,5.68h-.81L77.27,34l-.33-.86h0l0,.91v5.56h-1V31.15ZM34.52,32.88,33.27,36.6h3.06L35.1,32.88,34.84,32h0Zm2.14,4.72H32.93l-.67,2H31l3.12-8.48h1.38l3.13,8.48h-1.3Zm17.53,1,0,1H48.75V31.15H54l0,1.06H49.9v2.52h3.51v1H49.9v2.87Zm9.87,1-4-5.83-.5-.77h0v6.6h-1V31.15h1l4.3,6.41h0l0-.9v-5.5h1v8.48ZM24,32.23H22.24v6.32H24c1.67,0,2.45-.63,2.45-3.2s-.72-3.12-2.46-3.12m0,7.39H21.09V31.15H24c2.58,0,3.66,1.23,3.66,4.2S26.46,39.63,24,39.63m-9.16-8.48h1.19v8.48H14.86Zm-4.18,0-3,8.48H6.34l-3-8.48H4.61l2.14,6.5.27.87h0l.26-.87,2.15-6.5Z" transform="translate(-3.32 -2.22)"/></svg>